<svg xmlns="http://www.w3.org/2000/svg" xmlns:xlink="http://www.w3.org/1999/xlink" width="1080" zoomAndPan="magnify" viewBox="0 0 810 1439.999935" height="1920" preserveAspectRatio="xMidYMid meet" version="1.0"><rect x="-81" width="972" fill="#ffffff" y="-143.999994" height="1727.999922" fill-opacity="1"/><rect x="-81" width="972" fill="#000000" y="-143.999994" height="1727.999922" fill-opacity="1"/><path fill="#ffffff" d="M 541 663.738281 L 507.6875 636.046875 C 486.410156 614.769531 448.523438 662.769531 448.410156 662.875 C 445.457031 665.828125 421.707031 646.855469 402.285156 627.441406 C 382.871094 608.019531 363.894531 584.269531 366.847656 581.316406 C 366.960938 581.203125 414.953125 543.3125 393.679688 522.035156 L 365.984375 488.726562 C 336.148438 462.714844 243 533.417969 367.761719 658.183594 C 368.386719 658.804688 369.023438 659.433594 369.65625 660.066406 C 370.292969 660.703125 370.917969 661.335938 371.546875 661.964844 C 496.308594 786.726562 567.007812 693.585938 541 663.738281 " fill-opacity="1" fill-rule="nonzero"/></svg>