<svg xmlns="http://www.w3.org/2000/svg" xmlns:xlink="http://www.w3.org/1999/xlink" width="1080" zoomAndPan="magnify" viewBox="0 0 810 1439.999935" height="1920" preserveAspectRatio="xMidYMid meet" version="1.0"><defs><clipPath id="9a32d3e1a1"><path d="M 320.257812 541 L 489.757812 541 L 489.757812 899 L 320.257812 899 Z M 320.257812 541 " clip-rule="nonzero"/></clipPath></defs><rect x="-81" width="972" fill="#ffffff" y="-143.999994" height="1727.999922" fill-opacity="1"/><rect x="-81" width="972" fill="#000000" y="-143.999994" height="1727.999922" fill-opacity="1"/><g clip-path="url(#9a32d3e1a1)"><path fill="#ffffff" d="M 450.65625 600.085938 L 489.757812 600.085938 L 489.757812 541.199219 L 439.828125 541.199219 L 439.828125 541.421875 C 374.175781 543.828125 360.640625 580.558594 359.511719 619.390625 L 359.363281 619.390625 L 359.363281 660.253906 L 320.257812 660.253906 L 320.257812 719.214844 L 359.363281 719.214844 L 359.363281 898.4375 L 429.523438 898.4375 L 429.523438 719.214844 L 479.832031 719.214844 L 489.757812 660.253906 L 429.523438 660.253906 L 429.523438 623.671875 C 429.523438 610.675781 438.246094 600.085938 450.65625 600.085938 Z M 450.65625 600.085938 " fill-opacity="1" fill-rule="nonzero"/></g></svg>