<svg xmlns="http://www.w3.org/2000/svg" xmlns:xlink="http://www.w3.org/1999/xlink" width="1080" zoomAndPan="magnify" viewBox="0 0 810 1439.999935" height="1920" preserveAspectRatio="xMidYMid meet" version="1.0"><defs><clipPath id="c977eb30cf"><path d="M 243 558 L 567 558 L 567 882 L 243 882 Z M 243 558 " clip-rule="nonzero"/></clipPath></defs><rect x="-81" width="972" fill="#ffffff" y="-143.999994" height="1727.999922" fill-opacity="1"/><rect x="-81" width="972" fill="#000000" y="-143.999994" height="1727.999922" fill-opacity="1"/><g clip-path="url(#c977eb30cf)"><path fill="#ffffff" d="M 566.964844 690 L 484.714844 690 C 488.230469 699.335938 490.164062 709.441406 490.164062 720 C 490.164062 767.027344 451.980469 805.199219 404.964844 805.199219 C 357.9375 805.199219 319.765625 767.027344 319.765625 720 C 319.765625 709.441406 321.683594 699.335938 325.199219 690 L 242.964844 690 L 242.964844 832.800781 C 242.964844 859.96875 264.984375 882 292.164062 882 L 517.765625 882 C 544.933594 882 566.964844 859.96875 566.964844 832.800781 Z M 404.964844 651.601562 C 442.714844 651.601562 473.363281 682.246094 473.363281 720 C 473.363281 757.75 442.714844 788.398438 404.964844 788.398438 C 367.210938 788.398438 336.5625 757.75 336.5625 720 C 336.5625 682.246094 367.210938 651.601562 404.964844 651.601562 Z M 242.964844 673.199219 L 333.769531 673.199219 C 349.019531 650.074219 375.214844 634.800781 404.964844 634.800781 C 434.699219 634.800781 460.90625 650.074219 476.148438 673.199219 L 566.964844 673.199219 L 566.964844 607.199219 C 566.964844 580.03125 544.933594 558 517.765625 558 L 292.164062 558 C 264.984375 558 242.964844 580.03125 242.964844 607.199219 Z M 500.964844 604.800781 C 511.558594 604.800781 520.164062 613.402344 520.164062 624 C 520.164062 634.597656 511.558594 643.199219 500.964844 643.199219 C 490.367188 643.199219 481.765625 634.597656 481.765625 624 C 481.765625 613.402344 490.367188 604.800781 500.964844 604.800781 Z M 500.964844 604.800781 " fill-opacity="1" fill-rule="evenodd"/></g></svg>