<?xml version="1.0" encoding="utf-8"?>
<!-- Generator: Adobe Illustrator 27.0.0, SVG Export Plug-In . SVG Version: 6.00 Build 0)  -->
<svg version="1.1" id="Livello_1" xmlns="http://www.w3.org/2000/svg" xmlns:xlink="http://www.w3.org/1999/xlink" x="0px" y="0px"
	 viewBox="0 0 692.9 345.7" style="enable-background:new 0 0 692.9 345.7;" xml:space="preserve">
<style type="text/css">
	.st0{fill:#010202;}
</style>
<g id="Livello_2_1_">
	<g id="Livello_1-2">
		<path class="st0" d="M676.1,105.5c-0.8-1.1-1.4-2.5-1.1-3.6V85.8c0-3.6,0-11-14.5-11c-3.8-0.3-7.4,0.5-11,1.9
			c-3,1.4-5.2,4.4-5.5,7.9l11.5-0.3c0.5-1.9,1.1-2.7,3.8-2.7c3.6,0,4.1,1.4,4.1,3.3c-2.2,0.5-4.4,1.1-6.6,1.4
			c-5.5,0.8-8.8,1.1-11.5,3.8c-1.6,1.6-2.7,4.1-2.5,6.3c0,4.9,3.3,9.6,11,9.6c3.6,0.3,7.1-0.8,10.1-2.7v2.2L676.1,105.5L676.1,105.5
			z M663.5,91.8c0,1.1,0,2.5-0.5,3.6c-1.1,1.9-3.3,3.3-5.5,3.3s-3-1.4-3-2.2c0-0.3,0-1.6,2.5-2.7c1.1-0.3,2.2-0.5,3-0.8
			C661,92.6,662.4,92.1,663.5,91.8L663.5,91.8z M627.1,105.5h12.3V75.9h-12.3V105.5z M627.1,72.9h12.3V65h-12.3V72.9z M609.8,105.5
			h12.1V86.9c0.3-3.3-0.8-6.3-3-8.8c-2.5-1.9-5.5-3-8.5-3c-7.1,0-9.9,3.6-10.7,5.5c-1.1-2.5-3.3-4.1-6-4.7c-1.6-0.5-3-0.8-4.7-0.8
			c-3.8-0.3-7.7,1.6-9.6,4.9v-4.1h-11.8v29.6h12.3V89.4c0-1.1,0.3-2.5,1.1-3.3s2.2-1.4,3.3-1.1c1.9-0.3,3.6,1.1,4.1,3
			c0,0.5,0.3,1.1,0.3,1.6v16.2H601V89.6c-0.3-2.2,1.1-4.4,3.6-4.7c0.3,0,0.8,0,1.1,0c4.1,0,4.4,3.3,4.4,5.2L609.8,105.5L609.8,105.5
			z M543.2,92.9h21.4c-0.3-4.4-0.3-9.6-4.7-13.7c-3.3-3-7.9-4.7-12.3-4.4c-9.9,0-17,6.3-17,15.9c0,8.2,5.5,16.2,17,16.2
			c6.6,0.3,12.6-2.7,16.2-8.2l-10.1-4.1c-0.8,2.2-3,3.8-5.5,3.8c-1.4,0-2.7-0.5-3.6-1.4C543.8,95.9,543.2,94.3,543.2,92.9
			L543.2,92.9z M543.2,86.6c0-2.5,2.2-4.4,4.7-4.4c1.9,0,3.6,1.1,4.1,3c0,0.5,0,0.8,0.3,1.4H543.2z M530.6,150.5
			c0,8.2,5.5,16.2,17,16.2c6.6,0.3,12.9-2.7,16.4-8.2l-10.1-4.1c-0.8,2.2-3,3.8-5.5,3.8c-1.4,0-2.7-0.5-3.6-1.4
			c-1.1-1.1-1.6-2.7-1.4-4.1h21.4c0-4.7-0.3-9.6-4.7-13.7c-3.3-3-7.9-4.7-12.3-4.4c-9.9,0-17,6.3-17,15.9H530.6z M543.2,146.6
			c0.3-2.5,2.2-4.4,4.7-4.4c1.9,0,3.6,1.1,4.1,3c0,0.5,0,0.8,0.3,1.4H543.2z M515,165.5h12.3V125H515V165.5z M515.6,105.5h11.8V65
			H515v12.9c-2.2-1.9-4.9-3-7.9-2.7c-6.6,0-13.4,4.7-13.4,15.1c0,9.3,4.9,16.4,13.7,16.4c1.6,0,3-0.3,4.7-0.8
			c1.4-0.5,2.5-1.4,3.3-2.5v2.2L515.6,105.5L515.6,105.5z M515.6,90.7c0.3,2.2-0.3,4.1-1.6,5.8c-0.8,0.8-1.9,1.4-3,1.4
			c-1.1,0-2.2-0.5-3-1.4c-1.4-1.6-1.9-3.8-1.6-5.8c0-1.1,0-2.5,0.3-3.6c0.3-2.2,2.2-3.8,4.4-3.8c1.9,0,3.6,1.6,4.1,3.6
			C515.3,88,515.6,89.4,515.6,90.7L515.6,90.7z M479.7,105.5h12.1c-0.8-1.1-1.4-2.5-1.1-3.6V85.8c0-3.6,0-11-14.5-11
			c-3.8-0.3-7.4,0.5-11,1.9c-3,1.4-5.2,4.4-5.5,7.9l11.5-0.3c0.5-1.9,1.1-2.7,3.8-2.7c3.6,0,4.1,1.4,4.1,3.3
			c-2.2,0.5-4.4,1.1-6.6,1.4c-5.5,0.8-8.8,1.1-11.5,3.8c-1.6,1.6-2.7,4.1-2.5,6.3c0,4.9,3.3,9.6,11,9.6c3.6,0.3,7.1-0.8,10.1-2.7
			v2.2H479.7z M478.9,91.8c0,1.1,0,2.5-0.5,3.6c-1.1,1.9-3.3,3.3-5.5,3.3s-3-1.4-3-2.2c0-0.3,0-1.6,2.5-2.7c1.1-0.3,2.2-0.5,3-0.8
			C476.4,92.6,477.8,92.1,478.9,91.8L478.9,91.8z M457.8,149.9c0-10.4-6.6-15.1-13.4-15.1c-3-0.3-5.8,0.8-7.9,3V125h-12.3v40.5H436
			v-2.2c0.8,1.1,1.9,1.6,3,2.2c1.4,0.5,3,0.8,4.7,0.8C452.6,166.3,457.8,159.2,457.8,149.9L457.8,149.9z M445.7,150.5
			c0.3,2.2-0.3,4.1-1.6,5.8c-0.8,0.8-1.9,1.4-3,1.4c-2.2,0-3.8-1.4-4.1-3.6c-0.3-1.1-0.5-2.5-0.5-3.6c-0.3-2.2,0.5-4.1,1.6-5.8
			c0.8-0.8,1.9-1.4,3-1.4c2.2,0,4.1,1.6,4.4,3.8C445.7,148.3,445.7,149.4,445.7,150.5z M436.9,90.7c0-4.4,1.9-7.9,5.5-7.9
			c2.7,0,4.9,1.9,5.2,4.7l9.3-5.2c-0.5-1.1-1.4-2.2-2.5-3c-3.3-3.3-7.9-4.9-12.6-4.7c-4.7-0.3-9.3,1.4-12.6,4.7
			c-3,3-4.7,7.1-4.4,11.5c-0.5,8.5,6,15.6,14.2,16.2c0.8,0,1.4,0,2.2,0c4.7,0.3,9.3-1.4,12.9-4.7c1.4-1.4,2.2-2.7,3-4.4l-9.3-4.9
			c-0.5,1.6-1.6,4.9-5.5,4.9C437.5,97.6,436.9,93.2,436.9,90.7L436.9,90.7z M436.4,185h-12.1v9.3h-4.1v6.3h4.1l-0.3,14.2
			c-0.3,2.2,0.5,4.4,1.9,6c2.2,1.6,5.2,2.7,7.9,2.5c2.5,0,5.2-0.3,7.7-0.5v-8.2c-0.8,0.3-1.4,0.3-2.2,0.3c-3.3,0-3.3-1.9-3.3-3
			v-11.2h5.5v-6.3h-5.2V185H436.4z M403.8,90.7c0-4.4,1.9-7.9,5.5-7.9c2.7,0,4.9,1.9,5.2,4.7l9.3-5.2c-0.5-1.1-1.4-2.2-2.5-3
			c-3.3-3.3-7.9-4.9-12.6-4.7c-4.7-0.3-9.3,1.4-12.6,4.7c-3,3-4.7,7.1-4.4,11.5c-0.5,8.5,6,15.6,14.2,16.2c0.8,0,1.4,0,2.2,0
			c4.7,0.3,9.3-1.4,12.9-4.7c1.4-1.4,2.2-2.7,3-4.4l-9.3-4.9c-0.5,1.6-1.6,4.9-5.5,4.9C404.3,97.6,403.8,93.2,403.8,90.7L403.8,90.7
			z M415.6,192.9c-3.8-0.5-7.4,0.8-10.1,3.3v-2.7h-11.8V223h12.1v-14c0-1.9,0.3-6.3,7.4-6.3c0.8,0,1.6,0,2.5,0L415.6,192.9
			L415.6,192.9z M406.8,135.7h-12.3v29.9h12.3V135.7L406.8,135.7z M406.8,125h-12.3v7.9h12.3V125L406.8,125z M410.1,258.7
			c-2.2,0.5-4.4,1.1-6.6,1.4c-5.5,0.5-8.8,1.1-11.5,3.8c-1.6,1.6-2.7,3.8-2.7,6.3c0,4.9,3.3,9.6,11,9.6c3.6,0.3,7.1-0.8,10.1-3v2.2
			h12.1c-0.8-1.1-1.4-2.5-1.1-3.6v-16.2c0-3.6,0-11-14.5-11c-3.8,0-7.4,0.5-11,1.9c-3,1.4-5.2,4.4-5.5,7.9l11.5-0.3
			c0.5-2.2,1.1-2.7,3.8-2.7C409.5,255.4,410.1,256.7,410.1,258.7L410.1,258.7z M410.1,265.2c0,1.1,0,2.5-0.5,3.6
			c-1.1,1.9-3.3,3.3-5.8,3.3c-2.2,0-3-1.4-3-2.2c0-0.3,0-1.6,2.5-2.7c1.1-0.3,2.2-0.5,3-0.8C407.6,266.1,409,265.5,410.1,265.2
			L410.1,265.2z M377.8,165.5h11.8V125h-12.3v12.9c-2.2-1.9-4.9-3-7.9-3c-6.6,0-13.4,4.7-13.4,15.1c0,9.3,4.9,16.4,13.7,16.4
			c1.6,0,3-0.3,4.7-0.8c1.4-0.3,2.5-1.1,3-2.2L377.8,165.5L377.8,165.5z M377.8,150.5c0.3,2.2-0.3,4.1-1.6,5.8
			c-0.8,0.8-1.9,1.4-3,1.4s-2.2-0.5-3-1.4c-1.4-1.6-1.9-3.8-1.6-5.8c0-1.1,0-2.5,0.3-3.6c0.3-2.5,2.7-4.1,4.9-3.6
			c1.6,0.3,3.3,1.6,3.6,3.3C377.5,148,377.8,149.4,377.8,150.5z M377.5,105.5h12.1c-0.8-1.1-1.4-2.5-1.1-3.6V85.8
			c0-3.6,0-11-14.5-11c-3.8-0.3-7.4,0.5-11,1.9c-3,1.4-5.2,4.4-5.5,7.9l11.5-0.3c0.3-1.9,1.1-2.7,3.8-2.7c3.6,0,4.1,1.4,4.1,3.3
			c-2.2,0.5-4.4,1.1-6.6,1.4c-5.5,0.8-8.8,1.1-11.5,3.8c-1.6,1.6-2.7,3.8-2.7,6.3c0,4.9,3.3,9.6,11,9.6c3.6,0.3,7.1-0.8,10.1-2.7
			L377.5,105.5L377.5,105.5z M376.7,91.8c0,1.1,0,2.5-0.5,3.6c-1.1,2.2-3.3,3.3-5.8,3.3c-2.2,0-3-1.4-3-2.2c0-0.3,0-1.6,2.5-2.7
			c1.1-0.3,2.2-0.5,3-0.8C373.9,92.6,375.3,92.1,376.7,91.8L376.7,91.8z M325.4,172.6l-57-40.3l11.8-68.8l-68.8,11.8l-40.3-57
			l-40.3,57L62.2,63.6L74,132.4l-57,40.3L74,213l-11.8,68.8L131,270l40.3,57l40.3-57l68.8,11.8L268.6,213L325.4,172.6L325.4,172.6z
			 M98.9,254l55.1-17.5L132.6,260L98.9,254z M92.6,94l69.6,26.8l-42.7,42.7L92.6,94L92.6,94z M107.4,155.4L83.8,134l6-33.7
			L107.4,155.4z M107.4,189.9L89.9,245l-6-33.7L107.4,189.9L107.4,189.9z M166.3,129.1v38.6h-38.9L166.3,129.1z M166.3,177.6v38.6
			l-38.9-38.6H166.3z M162.2,224.1L92,251.5l27.7-69.9L162.2,224.1L162.2,224.1z M74.5,269.3l4.9-38.4l4.9,28.5l28.5,4.9L74.5,269.3
			z M38.9,175.7l67.7,2.2l-27.1,27.9L38.9,175.7z M79.4,139.8l27.1,27.9l-67.7,1.9L79.4,139.8L79.4,139.8z M112.9,80.9l-28.5,4.9
			l-4.9,28.5l-4.9-38.4L112.9,80.9z M132.6,85.3l21.4,23.6L98.9,91.3L132.6,85.3z M168.2,40.3L166,108l-27.9-27.1L168.2,40.3z
			 M168.2,305l-30.1-40.5l27.9-27.1L168.2,305L168.2,305z M263,205.8l-27.1-27.9l67.7-2.2L263,205.8L263,205.8z M176.1,216.5v-38.9
			h38.6L176.1,216.5z M222.7,182l27.4,70.1L180,224.7L222.7,182L222.7,182z M176.1,167.7v-38.6l38.6,38.6L176.1,167.7L176.1,167.7z
			 M180.3,121.1L249.8,94L223,163.6L180.3,121.1L180.3,121.1z M252.6,100.3l6,33.7L235,155.4L252.6,100.3z M235,189.9l23.6,21.4
			l-6,33.7L235,189.9L235,189.9z M229.6,264.4l28.5-4.9L263,231l4.9,38.4L229.6,264.4L229.6,264.4z M209.8,260l-21.4-23.6l55.1,17.5
			L209.8,260L209.8,260z M174.2,305l2.2-67.4l27.9,27.1L174.2,305L174.2,305z M204.4,80.9l-28,27.1l-2.2-67.7L204.4,80.9L204.4,80.9
			z M243.5,91.3l-55.1,17.5l21.4-23.6L243.5,91.3L243.5,91.3z M267.9,75.9l-4.9,38.4l-4.9-28.5l-28.5-4.9L267.9,75.9L267.9,75.9z
			 M303.5,169.9l-67.4-2.2l27.1-27.9L303.5,169.9L303.5,169.9z M360.5,252.6c-3,3-4.4,7.1-4.4,11.5c-0.5,8.5,5.8,15.6,14.2,16.2
			c0.8,0,1.4,0,2.2,0c4.7,0.3,9.3-1.4,12.9-4.7c1.4-1.4,2.2-2.7,3-4.4l-9.3-4.9c-0.5,1.6-1.6,4.9-5.5,4.9c-4.7,0-5.2-4.4-5.2-6.8
			c0-4.4,1.9-7.9,5.5-7.9c2.5,0,4.7,1.9,5.2,4.4l9.3-5.2c-0.5-1.1-1.4-2.2-2.5-3c-3.3-3.3-7.9-4.9-12.6-4.7
			C368.5,248,364.1,249.6,360.5,252.6L360.5,252.6z M376.9,202.8c-2.2,0.5-4.4,1.1-6.6,1.4c-5.5,0.5-8.8,1.1-11.5,3.8
			c-1.6,1.6-2.7,3.8-2.7,6.3c0,4.9,3.3,9.6,11,9.6c3.6,0.3,7.1-0.8,10.1-3v2.2h12.1c-0.8-1.1-1.4-2.5-1.1-3.6v-16.2
			c0-3.6,0-11-14.5-11c-3.8-0.3-7.4,0.5-11,1.9c-3,1.4-5.2,4.4-5.5,7.9l11.5-0.3c0.3-2.2,1.1-2.7,3.8-2.7
			C376.4,199.2,376.9,200.6,376.9,202.8L376.9,202.8z M376.9,209.4c0,1.4-0.3,2.5-0.8,3.6c-1.1,1.9-3.3,3.3-5.8,3.3
			c-2.2,0-3-1.4-3-2.2c0-0.3,0-1.6,2.5-2.7c1.1-0.3,2.2-0.5,3.3-0.8c1.1-0.3,2.5-0.8,3.6-1.1L376.9,209.4z M428.5,250.2h-4.4v6.3
			h4.1l-0.3,14.5c-0.3,2.2,0.5,4.4,2.2,6c2.2,1.6,5.2,2.7,7.9,2.5c2.5,0,5.2-0.3,7.7-0.5v-8.2c-0.8,0-1.4,0.3-2.2,0.3
			c-3.3,0-3.3-1.9-3.3-3v-11.5h5.5v-6.3h-5.2V241h-12.3L428.5,250.2L428.5,250.2z M459.4,182.8h-12.3v7.9h12.1L459.4,182.8
			L459.4,182.8z M459.4,193.5h-12.3V223h12.1L459.4,193.5L459.4,193.5z M450.1,263.9c-1.6,1.6-2.7,3.8-2.7,6.3c0,4.9,3.3,9.6,11,9.6
			c3.6,0.3,7.1-0.8,10.1-3v2.2h12.1c-0.8-1.1-1.4-2.5-1.1-3.6v-16.2c0-3.6,0-11-14.5-11c-3.8-0.3-7.4,0.5-11,1.9
			c-3,1.4-5.2,4.4-5.5,7.9l11.5-0.3c0.3-2.2,1.1-2.7,3.8-2.7c3.6,0,4.1,1.4,4.1,3.3c-2.2,0.5-4.4,1.1-6.6,1.4
			C456.1,260.6,452.8,261.1,450.1,263.9L450.1,263.9z M458.9,269.9c0-0.3,0-1.6,2.5-2.7c1.1-0.3,2.2-0.5,3-0.8
			c1.4-0.3,2.5-0.8,3.6-1.1c0,1.1,0,2.5-0.5,3.6c-1.1,1.9-3.3,3.3-5.8,3.3C459.7,272.1,458.9,270.4,458.9,269.9L458.9,269.9z
			 M474.5,157c-1.1-1.1-1.6-2.7-1.4-4.1h21.4c-0.3-4.7-0.3-9.6-4.7-13.7c-3.3-3-7.9-4.7-12.3-4.4c-9.9,0-17,6.3-17,15.9
			c0,8.2,5.5,16.2,17,16.2c6.6,0.3,12.9-2.7,16.4-8.2l-10.1-4.1c-0.8,2.2-3,3.8-5.5,3.8C476.9,158.4,475.6,157.8,474.5,157
			L474.5,157z M473.1,146.6c0.3-2.5,2.2-4.4,4.7-4.4c1.9,0,3.6,1.1,4.1,3c0,0.5,0.3,0.8,0.3,1.4H473.1z M497.8,165.5h12.3V125h-12.3
			V165.5L497.8,165.5z M496.4,249.3h-11.5v29.9h12.3v-15.9c0-1.6,0-4.9,4.4-4.9s4.1,3,4.1,4.4V279h12.1v-19c0.3-3.3-0.8-6.6-3-9
			c-2.2-1.9-5.2-3-8.2-2.7c-4.1-0.5-7.9,1.4-10.1,4.7L496.4,249.3L496.4,249.3z M535.3,238.7H523v7.9h12.3
			C535.3,246.3,535.3,238.7,535.3,238.7z M535.3,249.3H523v29.9h12.3V249.3z M541.9,263.9c-1.6,1.6-2.7,4.1-2.5,6.3
			c0,4.9,3.3,9.6,11,9.6c3.6,0.3,7.1-0.8,10.1-3v2.2h12.1c-0.8-1.1-1.4-2.5-1.1-3.6v-16.2c0-3.6,0-11-14.5-11c-3.8,0-7.4,0.5-11,1.9
			c-3,1.4-5.2,4.4-5.5,7.9l11.5-0.3c0.5-2.2,1.1-2.7,3.8-2.7c3.6,0,4.1,1.4,4.1,3.3c-2.2,0.5-4.4,1.1-6.6,1.4
			C547.9,260.6,544.6,261.1,541.9,263.9L541.9,263.9z M550.4,269.9c0-0.3,0-1.6,2.5-2.7c1.1-0.3,2.2-0.5,3-0.8
			c1.1-0.3,2.5-0.8,3.6-1.1c0,1.1,0,2.5-0.5,3.6c-1.1,1.9-3.3,3.3-5.5,3.3S550.6,270.7,550.4,269.9L550.4,269.9z"/>
	</g>
</g>
</svg>
